<svg width="30" height="31" viewBox="0 0 30 31" fill="none" xmlns="http://www.w3.org/2000/svg">
<path d="M14.7287 21.3264C14.6427 21.3263 14.559 21.2989 14.4895 21.248L11.1137 18.7782C11.0553 18.7352 11.0095 18.6775 10.981 18.6108C10.9525 18.5441 10.9423 18.471 10.9516 18.3991L11.1725 16.6658C11.1861 16.559 11.2415 16.4621 11.3266 16.3962C11.4116 16.3303 11.5193 16.301 11.626 16.3146C11.7326 16.3282 11.8295 16.3837 11.8953 16.4688C11.9611 16.5539 11.9904 16.6617 11.9768 16.7685L11.7859 18.2644L14.7295 20.4181L17.6756 18.2644L17.4835 16.7628C17.4698 16.656 17.4991 16.5482 17.5648 16.463C17.6306 16.3779 17.7275 16.3224 17.8341 16.3087C17.9408 16.295 18.0485 16.3243 18.1336 16.3902C18.2187 16.456 18.2741 16.553 18.2878 16.6597L18.5103 18.3979C18.5196 18.4698 18.5095 18.5429 18.4809 18.6096C18.4524 18.6762 18.4066 18.734 18.3482 18.7769L14.9708 21.2472C14.9007 21.2989 14.8158 21.3267 14.7287 21.3264Z" fill="white"/>
<path d="M9.10588 13.616C9.09696 13.616 9.08805 13.616 9.07953 13.616C8.73048 13.581 8.38747 13.5006 8.05913 13.377C7.70736 13.2723 7.3886 13.0784 7.1338 12.814C6.879 12.5496 6.69681 12.2238 6.60493 11.8681C6.48821 11.3525 6.56158 10.8121 6.81153 10.3464C7.06149 9.88074 7.47117 9.52121 7.96507 9.33409C8.04559 9.30545 8.12793 9.28226 8.21156 9.26469C8.26391 9.25203 8.31827 9.24993 8.37144 9.25853C8.42461 9.26713 8.47554 9.28626 8.52125 9.31478C8.56696 9.34331 8.60653 9.38066 8.63765 9.42467C8.66878 9.46868 8.69083 9.51845 8.70252 9.57109C8.71421 9.62372 8.7153 9.67816 8.70574 9.73122C8.69618 9.78429 8.67614 9.83491 8.64682 9.88014C8.61749 9.92536 8.57945 9.96428 8.53493 9.99463C8.49041 10.025 8.44029 10.0461 8.3875 10.0569C8.33549 10.068 8.28419 10.0823 8.23386 10.0995C7.92931 10.225 7.67861 10.4538 7.52569 10.7458C7.37277 11.0378 7.32739 11.3743 7.3975 11.6964C7.45786 11.91 7.57133 12.1048 7.7273 12.2626C7.88328 12.4203 8.07667 12.536 8.2894 12.5986C8.30399 12.6026 8.31899 12.6075 8.33277 12.6128C8.59053 12.7107 8.85951 12.7758 9.13345 12.8068C9.24097 12.8102 9.34274 12.8562 9.41638 12.9347C9.49001 13.0132 9.52947 13.1178 9.52609 13.2254C9.5227 13.333 9.47674 13.4349 9.39832 13.5086C9.31989 13.5823 9.21543 13.6218 9.10791 13.6184L9.10588 13.616Z" fill="white"/>
<path d="M20.351 13.616C20.2435 13.6194 20.139 13.5799 20.0606 13.5062C19.9822 13.4325 19.9362 13.3306 19.9328 13.223C19.9294 13.1153 19.9689 13.0108 20.0425 12.9322C20.1162 12.8537 20.2179 12.8077 20.3255 12.8043C20.5994 12.7735 20.8684 12.7083 21.1261 12.6104C21.1399 12.6051 21.1553 12.6002 21.1699 12.5962C21.3822 12.5333 21.5752 12.4175 21.7307 12.2598C21.8863 12.102 21.9993 11.9074 22.0594 11.694C22.1294 11.3754 22.0862 11.0424 21.9371 10.7523C21.788 10.4622 21.5425 10.2334 21.2429 10.1052C21.2169 10.0962 21.1857 10.0853 21.1367 10.0723C21.0852 10.0586 21.037 10.0348 20.9947 10.0024C20.9524 9.97005 20.9169 9.92964 20.8902 9.88352C20.8635 9.83739 20.8461 9.78645 20.8391 9.73361C20.8321 9.68077 20.8355 9.62706 20.8492 9.57556C20.8629 9.52405 20.8867 9.47575 20.919 9.43341C20.9514 9.39107 20.9917 9.35553 21.0378 9.32881C21.0839 9.30209 21.1348 9.28472 21.1876 9.27769C21.2403 9.27065 21.294 9.2741 21.3455 9.28782C21.4492 9.31582 21.5096 9.33896 21.5096 9.33896C22.5933 9.68269 23.0559 10.9217 22.8511 11.8673C22.7594 12.2231 22.5773 12.549 22.3224 12.8135C22.0676 13.078 21.7488 13.2719 21.3969 13.3766C21.0687 13.5002 20.7259 13.5806 20.3769 13.6156C20.3692 13.616 20.3603 13.616 20.351 13.616Z" fill="white"/>
<path d="M25.9593 28.6634H3.49818C3.39066 28.6634 3.28754 28.6206 3.21151 28.5445C3.13549 28.4684 3.09277 28.3652 3.09277 28.2575V25.4248C3.09277 22.0605 5.43196 19.0533 8.53494 18.4259L9.83872 18.2136C9.9449 18.1964 10.0536 18.2221 10.1408 18.2851C10.228 18.3481 10.2867 18.4432 10.3039 18.5495C10.3211 18.6558 10.2954 18.7645 10.2325 18.8519C10.1696 18.9392 10.0746 18.9979 9.96845 19.0152L8.67967 19.2246C5.96345 19.7724 3.90358 22.4391 3.90358 25.4248V27.8517H25.5522V25.4248C25.5522 22.4513 23.4782 19.7911 20.7279 19.2363L19.4813 19.0139C19.4289 19.0046 19.3788 18.985 19.334 18.9563C19.2891 18.9276 19.2504 18.8903 19.2199 18.8466C19.1894 18.8028 19.1679 18.7536 19.1565 18.7015C19.145 18.6494 19.144 18.5956 19.1533 18.5432C19.1627 18.4907 19.1822 18.4406 19.2109 18.3957C19.2396 18.3508 19.2769 18.312 19.3205 18.2815C19.3642 18.251 19.4134 18.2295 19.4654 18.218C19.5174 18.2066 19.5712 18.2055 19.6236 18.2149L20.8803 18.4393C24.0105 19.0699 26.3643 22.0727 26.3643 25.4248V28.2575C26.3643 28.3651 26.3216 28.4683 26.2457 28.5443C26.1697 28.6204 26.0667 28.6632 25.9593 28.6634Z" fill="white"/>
<path d="M14.7238 18.4247C13.8662 18.4263 13.0255 18.1853 12.2987 17.7295C10.596 16.6743 8.5625 14.8197 8.5625 12.0016V10.7163C8.5625 10.6087 8.60521 10.5055 8.68124 10.4294C8.75727 10.3533 8.86038 10.3105 8.96791 10.3105C9.07543 10.3105 9.17854 10.3533 9.25457 10.4294C9.3306 10.5055 9.37331 10.6087 9.37331 10.7163V12.0008C9.37331 14.4455 11.1976 16.0903 12.7284 17.0404C13.3277 17.4143 14.0197 17.6125 14.7259 17.6125C15.432 17.6125 16.124 17.4143 16.7233 17.0404C18.257 16.0883 20.0841 14.4431 20.0841 12V10.7163C20.0841 10.6087 20.1268 10.5055 20.2029 10.4294C20.2789 10.3533 20.382 10.3105 20.4895 10.3105C20.597 10.3105 20.7002 10.3533 20.7762 10.4294C20.8522 10.5055 20.8949 10.6087 20.8949 10.7163V12.0008C20.8949 14.816 18.8598 16.6703 17.1522 17.7303C16.4237 18.185 15.5823 18.4256 14.7238 18.4247Z" fill="white"/>
<path d="M16.6925 22.5642C16.6162 22.5642 16.5414 22.5425 16.4768 22.5017L14.5135 21.2622C14.4575 21.2269 14.411 21.1784 14.378 21.121C14.3451 21.0635 14.3267 20.9989 14.3245 20.9326C14.3222 20.8664 14.3362 20.8007 14.3652 20.7411C14.3942 20.6816 14.4373 20.63 14.4908 20.591L17.8678 18.1276C17.941 18.0733 18.0306 18.0459 18.1216 18.0501C18.6225 18.0752 19.1216 18.1294 19.6163 18.2124C19.6868 18.2233 19.7531 18.2525 19.8087 18.2972C19.8643 18.3419 19.9071 18.4005 19.9328 18.467C19.9586 18.5336 19.9663 18.6058 19.9553 18.6763C19.9443 18.7468 19.9149 18.8132 19.8701 18.8687L17.0079 22.414C16.9699 22.461 16.9218 22.4988 16.8672 22.5248C16.8126 22.5508 16.7529 22.5642 16.6925 22.5642ZM15.4504 20.8938L16.6041 21.6243L18.7885 18.9182C18.6044 18.8967 18.4187 18.8776 18.2294 18.8687L15.4504 20.8938Z" fill="white"/>
<path d="M12.7649 22.5641C12.7044 22.5641 12.6447 22.5506 12.5901 22.5244C12.5355 22.4983 12.4875 22.4603 12.4495 22.4132L9.58815 18.8711C9.54334 18.8156 9.51394 18.7492 9.50292 18.6787C9.4919 18.6082 9.49965 18.536 9.52539 18.4695C9.55113 18.4029 9.59394 18.3443 9.64952 18.2996C9.7051 18.2549 9.77147 18.2257 9.84193 18.2149C10.3365 18.1319 10.8354 18.0777 11.3363 18.0525C11.4272 18.0486 11.5168 18.0759 11.59 18.13L14.9675 20.5934C15.021 20.6325 15.0641 20.684 15.0931 20.7436C15.122 20.8031 15.136 20.8689 15.1338 20.9351C15.1316 21.0013 15.1132 21.0659 15.0802 21.1234C15.0473 21.1808 15.0008 21.2293 14.9448 21.2647L12.981 22.5025C12.9162 22.543 12.8413 22.5644 12.7649 22.5641ZM10.669 18.9165L12.8533 21.6226L14.0071 20.8921L11.2296 18.8678C11.0387 18.8784 10.853 18.8958 10.669 18.9174V18.9165Z" fill="white"/>
<path d="M7.82044 28.6634C7.71292 28.6634 7.60981 28.6206 7.53378 28.5445C7.45775 28.4684 7.41504 28.3652 7.41504 28.2575V24.4265C7.41504 24.3189 7.45775 24.2156 7.53378 24.1395C7.60981 24.0634 7.71292 24.0207 7.82044 24.0207C7.92796 24.0207 8.03108 24.0634 8.10711 24.1395C8.18313 24.2156 8.22585 24.3189 8.22585 24.4265V28.2575C8.22585 28.3652 8.18313 28.4684 8.10711 28.5445C8.03108 28.6206 7.92796 28.6634 7.82044 28.6634Z" fill="white"/>
<path d="M21.6369 28.6634C21.5293 28.6634 21.4262 28.6206 21.3502 28.5445C21.2742 28.4684 21.2314 28.3652 21.2314 28.2575V24.4265C21.2314 24.3189 21.2742 24.2156 21.3502 24.1395C21.4262 24.0634 21.5293 24.0207 21.6369 24.0207C21.7444 24.0207 21.8475 24.0634 21.9235 24.1395C21.9996 24.2156 22.0423 24.3189 22.0423 24.4265V28.2575C22.0423 28.3652 21.9996 28.4684 21.9235 28.5445C21.8475 28.6206 21.7444 28.6634 21.6369 28.6634Z" fill="white"/>
<path d="M8.98784 12.7992C8.90307 12.7991 8.82049 12.7723 8.7517 12.7227C8.6829 12.6732 8.63136 12.6032 8.60432 12.5228C7.89373 10.2882 7.52857 7.9579 7.52148 5.61276C7.55105 4.66704 7.91511 3.76256 8.54878 3.0605C9.16309 2.40258 9.86868 1.83647 10.6439 1.37955C11.3597 0.90925 12.1506 0.564882 12.9823 0.361324C13.9029 0.199326 14.8469 0.228751 15.7557 0.447766C16.4958 0.592425 17.1564 1.00562 17.6108 1.60803C17.9876 1.3552 18.4291 1.21628 18.8826 1.20789C19.5277 1.12957 20.1812 1.25211 20.7543 1.55884C21.3273 1.86556 21.7921 2.34158 22.0853 2.92211C22.0885 2.92739 22.0914 2.93266 22.0942 2.93794C22.6186 3.87632 22.7623 4.98069 22.4955 6.02225C22.4189 6.24795 22.3292 6.46896 22.2268 6.68415C22.0885 6.95358 21.9866 7.24016 21.9235 7.5364C21.9174 7.67522 21.8996 7.81329 21.8704 7.94913C21.8496 8.04113 21.8361 8.13462 21.8299 8.22874C21.7579 9.49955 21.4557 10.7467 20.938 11.9092C20.8407 12.1495 20.7568 12.3556 20.7215 12.4887C20.6989 12.578 20.6462 12.6566 20.5723 12.7114C20.4985 12.7661 20.4079 12.7936 20.3161 12.7891C20.2249 12.7861 20.1373 12.7525 20.0676 12.6936C19.9978 12.6347 19.95 12.5539 19.9318 12.4644C19.7798 11.2997 19.6917 10.1275 19.6678 8.95315V8.93529C19.5746 7.97832 19.1276 7.09074 18.4144 6.4467C17.7012 5.80266 16.7733 5.44864 15.8128 5.45408C15.6843 5.46261 15.5493 5.45408 15.418 5.45774H15.3649C14.4281 5.41317 13.4896 5.49838 12.5761 5.71097C12.2153 5.78118 10.4846 6.19797 10.022 7.90854C9.88986 8.31072 9.56594 10.8979 9.39081 12.4388C9.38044 12.5306 9.33912 12.6161 9.27367 12.6811C9.20821 12.7462 9.12254 12.787 9.03081 12.7968C9.01654 12.7984 9.0022 12.7992 8.98784 12.7992ZM15.8132 4.64202C16.9768 4.63812 18.0998 5.06937 18.9623 5.85126C19.8247 6.63314 20.3644 7.70928 20.4754 8.86874C20.4754 8.88497 20.4799 8.94219 20.4795 8.95843C20.4722 9.14754 20.5078 9.87722 20.5605 10.6187C20.8316 9.84035 20.9868 9.02633 21.0211 8.20277C21.0282 8.06727 21.0458 7.93254 21.0738 7.79978C21.0958 7.70294 21.1094 7.60435 21.1143 7.50515C21.1143 7.48667 21.1156 7.46822 21.1184 7.44996C21.1874 7.06679 21.3125 6.69592 21.4897 6.34935C21.5782 6.16458 21.6561 5.97488 21.7228 5.78118C21.9253 4.9443 21.8015 4.06162 21.3766 3.31293C21.157 2.86788 20.8031 2.50326 20.365 2.2707C19.927 2.03814 19.4269 1.94942 18.9357 2.01711C18.5347 2.03943 18.0677 2.16159 17.9372 2.43836C17.9055 2.50551 17.856 2.56266 17.7941 2.60359C17.7322 2.64452 17.6602 2.66767 17.5861 2.6705C17.5123 2.67266 17.4392 2.65498 17.3746 2.61929C17.3099 2.5836 17.256 2.53122 17.2184 2.46758C17.0495 2.16309 16.8191 1.89716 16.5419 1.68677C16.2646 1.47638 15.9466 1.32614 15.6081 1.24563C14.803 1.04798 13.9659 1.01746 13.1485 1.15594C12.4092 1.34102 11.7065 1.64988 11.07 2.06946C10.3652 2.48386 9.72286 2.9964 9.16216 3.59173C8.65713 4.14395 8.36322 4.85701 8.3323 5.60505C8.35039 7.17602 8.51845 8.74166 8.83419 10.2806C8.92637 9.40559 9.06385 8.53595 9.24608 7.67519C9.46338 6.96637 9.8744 6.33252 10.4327 5.84528C10.991 5.35804 11.6743 5.03684 12.4054 4.91798C13.3749 4.69245 14.3706 4.60096 15.3649 4.64608H15.4135C15.5416 4.64405 15.6892 4.64567 15.8132 4.64242V4.64202Z" fill="white"/>
</svg>
