<svg width="30" height="31" viewBox="0 0 30 31" fill="none" xmlns="http://www.w3.org/2000/svg">
<g clip-path="url(#clip0_3490_466)">
<path d="M22.9115 14.7491H25.0041C25.4772 14.7491 25.8621 14.3638 25.8621 13.8902V11.7954C25.8621 11.3218 25.4772 10.9365 25.0041 10.9365H22.9115C22.4384 10.9365 22.0535 11.3218 22.0535 11.7954V13.8902C22.0535 14.3638 22.4384 14.7491 22.9115 14.7491ZM22.9324 11.8163H24.9832V13.8692H22.9324V11.8163ZM22.9115 20.3213H25.0041C25.4772 20.3213 25.8621 19.936 25.8621 19.4624V17.3676C25.8621 16.894 25.4772 16.5087 25.0041 16.5087H22.9115C22.4384 16.5087 22.0535 16.894 22.0535 17.3676V19.4624C22.0535 19.936 22.4384 20.3213 22.9115 20.3213ZM22.9324 17.3885H24.9832V19.4415H22.9324V17.3885ZM16.9399 14.7491H19.0325C19.5056 14.7491 19.8905 14.3638 19.8905 13.8902V11.7954C19.8905 11.3218 19.5056 10.9365 19.0325 10.9365H16.9399C16.4668 10.9365 16.0819 11.3218 16.0819 11.7954V13.8902C16.0819 14.3638 16.4668 14.7491 16.9399 14.7491ZM16.9608 11.8163H19.0116V13.8692H16.9608V11.8163ZM7.08922 21.8197H4.9966C4.52351 21.8197 4.13861 22.205 4.13861 22.6786V24.7734C4.13861 25.247 4.52351 25.6323 4.9966 25.6323H7.08922C7.5623 25.6323 7.94721 25.247 7.94721 24.7734V22.6786C7.94721 22.205 7.5623 21.8197 7.08922 21.8197ZM7.0683 24.7525H5.01752V22.6995H7.0683V24.7525ZM7.08922 10.9365H4.9966C4.52351 10.9365 4.13861 11.3218 4.13861 11.7954V13.8902C4.13861 14.3638 4.52351 14.7491 4.9966 14.7491H7.08922C7.5623 14.7491 7.94721 14.3638 7.94721 13.8902V11.7954C7.94721 11.3217 7.5623 10.9365 7.08922 10.9365ZM7.0683 13.8692H5.01752V11.8163H7.0683V13.8692ZM16.9399 20.1907H19.0325C19.5056 20.1907 19.8905 19.8054 19.8905 19.3318V17.237C19.8905 16.7634 19.5056 16.3781 19.0325 16.3781H16.9399C16.4668 16.3781 16.0819 16.7634 16.0819 17.237V19.3318C16.0819 19.8054 16.4668 20.1907 16.9399 20.1907ZM16.9608 17.2579H19.0116V19.3108H16.9608V17.2579ZM26.2986 2.01034H24.4197V1.33775C24.4197 0.6001 23.8202 0 23.0834 0H22.8816C22.1448 0 21.5453 0.6001 21.5453 1.33775V2.01034H8.45545V1.33775C8.45545 0.6001 7.85598 0 7.1191 0H6.9173C6.18043 0 5.58096 0.6001 5.58096 1.33775V2.01034H3.70215C2.48896 2.01034 1.50195 2.99839 1.50195 4.21284V27.8318C1.50195 29.0447 2.48762 30.0314 3.69922 30.0314H26.3016C27.5132 30.0314 28.4989 29.0447 28.4989 27.8318V4.21284C28.4988 2.99839 27.5118 2.01034 26.2986 2.01034ZM22.4242 1.33775C22.4242 1.08524 22.6294 0.879827 22.8816 0.879827H23.0834C23.3357 0.879827 23.5409 1.08524 23.5409 1.33775V2.01034H22.4242V1.33775ZM6.45992 1.33775C6.45992 1.08524 6.66512 0.879827 6.91736 0.879827H7.11916C7.37141 0.879827 7.5766 1.08524 7.5766 1.33775V2.01034H6.45998L6.45992 1.33775ZM27.6199 27.8318C27.6199 28.5596 27.0285 29.1516 26.3016 29.1516H3.69916C2.97219 29.1516 2.3808 28.5596 2.3808 27.8318V27.8291C2.749 28.1068 3.20668 28.2718 3.70215 28.2718H21.5195C22.1072 28.2718 22.6597 28.0427 23.0753 27.6266L27.6199 23.0772V27.8318ZM22.6269 26.8312C22.6613 26.6889 22.6801 26.5404 22.6801 26.3876V23.4511C22.6801 22.8974 23.1301 22.4469 23.6833 22.4469H26.6167C26.7693 22.4469 26.9176 22.4281 27.0598 22.3936L22.6269 26.8312ZM27.6199 8.297H8.8949C8.65221 8.297 8.45545 8.49396 8.45545 8.73691C8.45545 8.97986 8.65221 9.17683 8.8949 9.17683H27.6199V20.5628C27.6199 21.1166 27.1699 21.5671 26.6167 21.5671H23.6833C22.6455 21.5671 21.8012 22.4123 21.8012 23.4512V26.3877C21.8012 26.9415 21.3511 27.392 20.798 27.392H3.70215C2.97359 27.392 2.38086 26.7986 2.38086 26.0693V9.17683H8.9193C9.16199 9.17683 9.35875 8.97986 9.35875 8.73691C9.35875 8.49396 9.16199 8.297 8.9193 8.297H2.3808V4.21284C2.3808 3.48353 2.97353 2.89017 3.70209 2.89017H5.58096V4.18363C5.58096 4.92128 6.18043 5.52138 6.9173 5.52138C7.16 5.52138 7.35676 5.32442 7.35676 5.08147C7.35676 4.83852 7.16 4.64155 6.9173 4.64155C6.66506 4.64155 6.45986 4.43614 6.45986 4.18363V2.89017H21.5453V4.18363C21.5453 4.92128 22.1448 5.52138 22.8816 5.52138C23.1243 5.52138 23.3211 5.32442 23.3211 5.08147C23.3211 4.83852 23.1243 4.64155 22.8816 4.64155C22.6294 4.64155 22.4242 4.43614 22.4242 4.18363V2.89017H26.2986C27.0272 2.89017 27.6199 3.48353 27.6199 4.21284V8.297ZM7.08922 16.3781H4.9966C4.52351 16.3781 4.13861 16.7634 4.13861 17.237V19.3318C4.13861 19.8054 4.52351 20.1907 4.9966 20.1907H7.08922C7.5623 20.1907 7.94721 19.8054 7.94721 19.3318V17.237C7.94721 16.7633 7.5623 16.3781 7.08922 16.3781ZM7.0683 19.3108H5.01752V17.2579H7.0683V19.3108ZM10.9682 14.7491H13.0609C13.5339 14.7491 13.9188 14.3638 13.9188 13.8902V11.7954C13.9188 11.3218 13.5339 10.9365 13.0609 10.9365H10.9682C10.4952 10.9365 10.1103 11.3218 10.1103 11.7954V13.8902C10.1103 14.3638 10.4952 14.7491 10.9682 14.7491ZM10.9892 11.8163H13.0399V13.8692H10.9892V11.8163ZM16.9603 24.7525C16.9494 24.5192 16.757 24.3335 16.5213 24.3335C16.2786 24.3335 16.0818 24.5304 16.0818 24.7734C16.0818 25.247 16.4667 25.6323 16.9398 25.6323H19.0324C19.5055 25.6323 19.8904 25.247 19.8904 24.7734V22.6786C19.8904 22.205 19.5055 21.8197 19.0324 21.8197H16.9398C16.4667 21.8197 16.0818 22.205 16.0818 22.6786V24.7556C16.0818 24.9986 16.2786 25.1955 16.5213 25.1955C16.764 25.1955 16.9607 24.9986 16.9607 24.7556V22.6995H19.0115V24.7525H16.9603ZM10.9682 20.1907H13.0609C13.5339 20.1907 13.9188 19.8054 13.9188 19.3318V17.237C13.9188 16.7634 13.5339 16.3781 13.0609 16.3781H10.9682C10.4952 16.3781 10.1103 16.7634 10.1103 17.237V19.3318C10.1103 19.8054 10.4952 20.1907 10.9682 20.1907ZM10.9892 17.2579H13.0399V19.3108H10.9892V17.2579ZM10.9682 25.6323H13.0609C13.5339 25.6323 13.9188 25.247 13.9188 24.7734V22.6786C13.9188 22.205 13.5339 21.8197 13.0609 21.8197H10.9682C10.4952 21.8197 10.1103 22.205 10.1103 22.6786V24.7734C10.1103 25.247 10.4952 25.6323 10.9682 25.6323ZM10.9892 22.6995H13.0399V24.7525H10.9892V22.6995Z" fill="white"/>
</g>
<defs>
<clipPath id="clip0_3490_466">
<rect width="30" height="30.0314" fill="white"/>
</clipPath>
</defs>
</svg>
