<svg width="30" height="30" viewBox="0 0 30 30" fill="none" xmlns="http://www.w3.org/2000/svg">
<g clip-path="url(#clip0_3490_493)">
<path d="M18.46 21.1926H16.8154C16.5727 21.1926 16.376 21.3894 16.376 21.6321C16.376 21.8748 16.5727 22.0715 16.8154 22.0715H18.46C18.7027 22.0715 18.8994 21.8748 18.8994 21.6321C18.8994 21.3894 18.7027 21.1926 18.46 21.1926Z" fill="white"/>
<path d="M28.1398 16.488L25.7468 15.565L24.5267 14.3449C24.4483 14.2665 24.3474 14.2241 24.2443 14.2175V13.2466C24.8193 12.6335 25.2286 11.8571 25.3938 10.9824C25.4963 10.987 25.5999 10.9788 25.702 10.9579C26.2867 10.8382 26.7111 10.2957 26.7111 9.66802V9.34757C26.7111 8.98446 26.5639 8.65118 26.3241 8.41288C26.7122 6.30232 26.3925 4.58235 25.3956 3.43116C24.4313 2.31769 22.8778 1.78548 20.9031 1.8923C19.0787 1.99091 17.901 2.83033 17.5279 3.13742C17.3236 3.16168 16.9757 3.2334 16.6235 3.44469C16.1354 3.73754 15.5537 4.35272 15.5537 5.62029C15.5537 6.72607 15.7304 7.64928 15.8583 8.17305C15.4294 8.382 15.1425 8.83481 15.1425 9.35249V9.66796C15.1425 10.2956 15.5669 10.8381 16.1516 10.9579C16.2537 10.9788 16.3573 10.987 16.4598 10.9823C16.625 11.857 17.0344 12.6335 17.6094 13.2466V14.2174C17.5062 14.2241 17.4052 14.2665 17.3269 14.3448L16.1068 15.5649L13.7138 16.488C13.5068 16.5678 13.309 16.6713 13.1261 16.7956C12.9254 16.932 12.8732 17.2053 13.0096 17.406C13.0946 17.5312 13.2328 17.5985 13.3734 17.5985C13.4585 17.5985 13.5444 17.5739 13.62 17.5225C13.7476 17.4359 13.8855 17.3637 14.0301 17.3079L16.251 16.4513L17.949 18.9984C18.1595 19.3142 18.4969 19.5167 18.8745 19.5541C18.9165 19.5583 18.9586 19.5603 19.0003 19.5603C19.2189 19.5603 19.431 19.5028 19.6187 19.3966L19.2543 27.6624C19.2436 27.9048 19.4315 28.1101 19.674 28.1207C19.6806 28.121 19.6872 28.1212 19.6937 28.1212C19.9275 28.1212 20.1221 27.9369 20.1324 27.701L20.4706 20.0287H21.3829L21.7211 27.701C21.7315 27.9369 21.926 28.1212 22.1598 28.1212C22.1664 28.1212 22.173 28.121 22.1795 28.1207C22.422 28.1101 22.6099 27.9048 22.5992 27.6624L22.2348 19.3966C22.4226 19.5028 22.6346 19.5603 22.8533 19.5603C22.895 19.5603 22.937 19.5583 22.979 19.5541C23.3567 19.5167 23.694 19.3142 23.9045 18.9984L25.6026 16.4513L27.8235 17.3079C28.1349 17.428 28.4031 17.6197 28.6139 17.8588L27.0945 19.3782C26.5455 19.9272 26.2432 20.657 26.2432 21.4333V27.6818C26.2432 27.9245 26.44 28.1212 26.6827 28.1212C26.9254 28.1212 27.1222 27.9245 27.1222 27.6818V21.4333C27.1222 20.8918 27.333 20.3826 27.7159 19.9997L29.0494 18.6662C29.103 18.8627 29.128 19.0693 29.1196 19.2804L28.7792 27.6639C28.7693 27.9065 28.958 28.111 29.2004 28.1209C29.2065 28.1212 29.2125 28.1213 29.2186 28.1213C29.453 28.1213 29.6478 27.9361 29.6573 27.6997L29.9978 19.3159C30.0477 18.0723 29.301 16.9359 28.1398 16.488ZM17.3201 10.8012C17.2426 10.3792 16.8519 10.0726 16.4302 10.1038C16.3968 10.1062 16.3625 10.1038 16.3279 10.0968C16.1532 10.0611 16.0214 9.87667 16.0214 9.66802V9.35243C16.0214 9.14858 16.1576 8.96495 16.3315 8.93442C16.4782 8.90864 16.6187 8.96249 16.7076 9.07845C16.7883 9.18362 16.8959 9.25886 17.0188 9.29589C17.1988 9.35027 17.3973 9.31833 17.5498 9.21064C17.8246 9.01663 18.0671 8.77962 18.2705 8.5061C18.4153 8.31133 18.3748 8.03606 18.1801 7.89127C17.9852 7.74643 17.71 7.78692 17.5652 7.98168C17.4638 8.11809 17.3492 8.2419 17.223 8.35147C17.0837 8.23229 16.9209 8.14616 16.7465 8.097C16.6335 7.66446 16.4326 6.73779 16.4326 5.62017C16.4326 4.9471 16.64 4.47419 17.0492 4.21462C17.3685 4.01206 17.7064 4.00397 17.7062 4.00391C17.8185 4.00391 17.9278 3.95967 18.0094 3.88251C18.0201 3.87243 19.1004 2.86988 20.9505 2.76986C22.6439 2.67846 23.9513 3.10596 24.7311 4.00643C25.5171 4.91405 25.7788 6.30748 25.4949 8.05153C25.3772 8.04737 25.2483 8.05627 25.1201 8.07766L24.7072 7.08613C24.6229 6.88387 24.4023 6.77465 24.1903 6.8299C24.1494 6.84057 20.0912 7.86936 18.3895 5.75083C18.2376 5.56163 17.961 5.5314 17.7717 5.68339C17.5825 5.83539 17.5523 6.11195 17.7043 6.30121C19.442 8.46462 22.8899 7.99399 24.0377 7.76448L24.3569 8.53118C24.4942 8.86077 24.8454 9.04077 25.1916 8.95915C25.3337 8.92569 25.4695 8.92493 25.5204 8.93501C25.6981 8.9704 25.8321 9.14765 25.8321 9.34745V9.66796C25.8321 9.87667 25.7004 10.061 25.5256 10.0968C25.4911 10.1038 25.4566 10.1062 25.4234 10.1037C25.0018 10.073 24.6111 10.3791 24.5335 10.8012C24.2138 12.5416 22.697 13.8049 20.9268 13.8049C19.1566 13.8049 17.6398 12.5416 17.3201 10.8012ZM19.2696 18.5693C19.1581 18.6808 19.0286 18.6862 18.9612 18.6795C18.8939 18.6729 18.7678 18.6421 18.6804 18.511L16.9698 15.945L17.6577 15.2571L20.2839 17.555L19.2696 18.5693ZM20.5094 19.1498L20.536 18.5458L20.9267 18.1551L21.3175 18.5458L21.3441 19.1498H20.5094ZM20.9268 16.9496L18.4883 14.8159V13.9749C19.1973 14.4257 20.0361 14.6838 20.9268 14.6838C21.8175 14.6838 22.6564 14.4257 23.3653 13.9749V14.8159L20.9268 16.9496ZM23.1733 18.511C23.0858 18.6422 22.9598 18.6729 22.8925 18.6795C22.825 18.6862 22.6955 18.6808 22.5841 18.5693L21.5697 17.5549L24.1959 15.257L24.8839 15.945L23.1733 18.511Z" fill="white"/>
<path d="M13.9363 18.791L11.7904 17.8544L10.6174 16.6814C10.5389 16.6028 10.4379 16.5606 10.335 16.554V15.8627C11.3375 15.2039 12.0711 14.1562 12.3068 12.9077C12.4223 12.9129 12.5388 12.9018 12.6536 12.8747C13.216 12.7416 13.6241 12.2027 13.6241 11.5933V11.273C13.6241 10.8278 13.4032 10.4273 13.0609 10.1923C13.1616 9.79351 13.2129 9.38552 13.2129 8.97484C13.2129 7.1542 12.2288 5.5506 10.7454 4.62986C10.7295 3.11034 9.43256 1.87869 7.8398 1.87869C6.24704 1.87869 4.95006 3.11034 4.93424 4.62986C3.45087 5.5506 2.46673 7.15426 2.46673 8.97484C2.46673 9.38429 2.51771 9.79111 2.61778 10.1888C2.27571 10.4226 2.05557 10.8249 2.05557 11.2778V11.5933C2.05557 12.2027 2.46368 12.7416 3.02601 12.8747C3.14085 12.9019 3.25734 12.9129 3.37283 12.9077C3.60855 14.1562 4.34221 15.2039 5.34469 15.8627V16.554C5.24186 16.5606 5.14084 16.6028 5.06227 16.6814L3.88927 17.8544L1.7435 18.791C0.651721 19.2676 -0.0478907 20.3875 0.00255871 21.5777L0.262071 27.7004C0.272091 27.9365 0.466682 28.1212 0.700823 28.1212C0.707093 28.1212 0.713421 28.1211 0.719749 28.1208C0.96227 28.1106 1.15047 27.9057 1.14022 27.6632L0.880648 21.5404C0.863949 21.1459 0.966488 20.7631 1.15926 20.4337L2.31269 21.8178C2.6772 22.2552 2.87788 22.8096 2.87788 23.3789V27.6818C2.87788 27.9245 3.07464 28.1212 3.31734 28.1212C3.56003 28.1212 3.75679 27.9245 3.75679 27.6818V23.3789C3.75679 22.6044 3.48369 21.8502 2.98786 21.2551L1.76167 19.7837C1.86591 19.7118 1.97671 19.6482 2.09513 19.5965L3.96521 18.7802L5.28674 20.9253C5.41723 21.1371 5.63297 21.2807 5.87872 21.3194C5.92289 21.3263 5.96719 21.3297 6.01131 21.3297C6.21223 21.3297 6.40794 21.2585 6.56309 21.1261L7.40052 20.4116V27.6817C7.40052 27.9244 7.59728 28.1212 7.83997 28.1212C8.08267 28.1212 8.27943 27.9244 8.27943 27.6817V20.4117L9.11679 21.1262C9.27195 21.2587 9.46765 21.3299 9.66857 21.3299C9.71264 21.3299 9.75699 21.3264 9.80117 21.3195C10.0469 21.2808 10.2627 21.1372 10.3931 20.9254L11.7147 18.7803L13.5848 19.5966C13.7031 19.6483 13.814 19.7119 13.9182 19.7837L12.692 21.2552C12.1962 21.8502 11.9231 22.6044 11.9231 23.3789V27.6819C11.9231 27.9245 12.1199 28.1213 12.3625 28.1213C12.6052 28.1213 12.802 27.9245 12.802 27.6819V23.3789C12.802 22.8096 13.0027 22.2552 13.3672 21.8178L14.5206 20.4337C14.7134 20.7632 14.8159 21.146 14.7992 21.5405L14.5397 27.6632C14.5295 27.9057 14.7177 28.1106 14.9602 28.1209C14.9665 28.1212 14.9728 28.1213 14.9791 28.1213C15.2133 28.1213 15.4079 27.9366 15.4179 27.7004L15.6774 21.5778C15.7278 20.3875 15.0281 19.2676 13.9363 18.791ZM7.83991 2.7576C8.77484 2.7576 9.56363 3.35403 9.79689 4.16216C9.19021 3.93317 8.53009 3.80726 7.83991 3.80726C7.14973 3.80726 6.48962 3.93317 5.88293 4.16216C6.1162 3.35403 6.90493 2.7576 7.83991 2.7576ZM4.23316 12.7266C4.1557 12.3046 3.76435 11.998 3.34329 12.0292C3.30597 12.0318 3.26742 12.0286 3.22851 12.0194C3.06093 11.9797 2.93454 11.7965 2.93454 11.5933V11.2778C2.93454 11.0739 3.07077 10.8903 3.24462 10.8597C3.39134 10.834 3.53179 10.8879 3.62062 11.0037C3.7013 11.1089 3.80894 11.1842 3.93193 11.2213C4.11187 11.2757 4.31045 11.2438 4.46291 11.136C4.73355 10.945 4.97285 10.7121 5.17418 10.444C5.3199 10.25 5.2807 9.97445 5.08664 9.82879C4.89252 9.68306 4.61707 9.72226 4.47135 9.91633C4.37168 10.049 4.25947 10.1697 4.13607 10.2769C3.94804 10.1161 3.71748 10.0154 3.4729 9.98488C3.3887 9.65388 3.34564 9.31538 3.34564 8.9749C3.34564 6.61016 5.36174 4.68622 7.83991 4.68622C10.318 4.68622 12.3341 6.6101 12.3341 8.9749C12.3341 9.31474 12.2913 9.65253 12.2074 9.98295C12.0917 9.99215 11.9742 10.0111 11.8654 10.0393L11.535 9.76767C11.369 9.63115 11.1601 9.56283 10.9486 9.57542C10.3027 9.61357 6.99458 9.70093 5.29735 7.66971C5.14172 7.4835 4.86463 7.45866 4.67836 7.61428C4.49209 7.76991 4.4673 8.04706 4.62293 8.23327C5.46 9.23505 6.68772 9.91246 8.27193 10.2467C9.48488 10.5026 10.5631 10.4777 10.9856 10.4536L11.501 10.8774C11.6428 10.9941 11.8418 11.0106 12.0006 10.9181C12.0751 10.8775 12.3248 10.8387 12.4337 10.8604C12.6114 10.8958 12.7453 11.0731 12.7453 11.273V11.5933C12.7453 11.7966 12.619 11.9798 12.4514 12.0194C12.4125 12.0286 12.3739 12.0319 12.3366 12.0291C11.9158 11.9985 11.5242 12.3046 11.4467 12.7266C11.127 14.4671 9.61016 15.7304 7.83997 15.7304C6.06973 15.7304 4.55285 14.4671 4.23316 12.7266ZM6.0177 20.4362L4.69594 18.2907L5.37305 17.6136L7.19286 19.4334L6.0177 20.4362ZM7.83991 18.8374L6.22366 17.2212V16.312C6.72821 16.5041 7.27343 16.6093 7.83991 16.6093C8.4064 16.6093 8.95162 16.5041 9.45617 16.3121V17.2212L7.83991 18.8374ZM9.66213 20.4362L8.48697 19.4334L10.3068 17.6136L10.9839 18.2907L9.66213 20.4362Z" fill="white"/>
<path d="M6.19532 23.1309H4.96192C4.71922 23.1309 4.52246 23.3277 4.52246 23.5704C4.52246 23.8131 4.71922 24.0098 4.96192 24.0098H6.19532C6.43802 24.0098 6.63477 23.8131 6.63477 23.5704C6.63477 23.3277 6.43802 23.1309 6.19532 23.1309Z" fill="white"/>
</g>
<defs>
<clipPath id="clip0_3490_493">
<rect width="30" height="30" fill="white"/>
</clipPath>
</defs>
</svg>
