<svg width="30" height="31" viewBox="0 0 30 31" fill="none" xmlns="http://www.w3.org/2000/svg">
<path d="M29.0896 17.5123H29.0697V2.78413C29.0697 2.15196 28.5559 1.63762 27.9244 1.63762H26.4918C26.2485 1.63762 26.0513 1.83506 26.0513 2.07859C26.0513 2.32212 26.2485 2.51955 26.4918 2.51955H27.9244C28.0701 2.51955 28.1887 2.63826 28.1887 2.78413V17.5123H26.5923V16.5469C26.5923 16.0444 26.1839 15.6356 25.6819 15.6356H22.5508C22.0488 15.6356 21.6404 16.0444 21.6404 16.5469V17.5123H1.81135V2.78413C1.81135 2.63826 1.92993 2.51955 2.07565 2.51955H11.3631V2.91166C11.3631 3.41418 11.7715 3.82298 12.2735 3.82298H17.5544C18.0564 3.82298 18.4648 3.41418 18.4648 2.91166V2.51955H26.4918C26.7352 2.51955 26.9323 2.32212 26.9323 2.07859C26.9323 1.83506 26.7352 1.63762 26.4918 1.63762H18.4648V1.24499C18.4648 0.742467 18.0564 0.333664 17.5544 0.333664H12.2735C11.7715 0.333664 11.3631 0.742467 11.3631 1.24499V1.63762H2.07565C1.44414 1.63762 0.930342 2.15196 0.930342 2.78413V17.5123H0.910372C0.408375 17.5123 0 17.9211 0 18.4237V20.5656C0 21.0681 0.408375 21.4769 0.910372 21.4769H4.86486C5.10814 21.4769 5.30537 21.2795 5.30537 21.0359C5.30537 20.7924 5.10814 20.595 4.86486 20.595H0.910372C0.894456 20.595 0.881006 20.5815 0.881006 20.5656V18.4237C0.881006 18.4077 0.894456 18.3943 0.910372 18.3943H29.0896C29.1055 18.3943 29.119 18.4077 29.119 18.4237V20.5656C29.119 20.5815 29.1055 20.595 29.0896 20.595H4.52073C4.27746 20.595 4.08023 20.7924 4.08023 21.0359C4.08023 21.2795 4.27746 21.4769 4.52073 21.4769H9.30741L7.22425 28.8337C7.16557 29.0388 7.20539 29.2542 7.33331 29.4249C7.46165 29.5959 7.65782 29.6945 7.87284 29.6953L9.51668 29.6971C9.81687 29.6971 10.0841 29.4951 10.1666 29.2053L11.0106 26.2252H18.9895L19.8337 29.2059C19.916 29.4951 20.1832 29.6971 20.4839 29.6971L22.1285 29.6953C22.3423 29.6945 22.5385 29.5959 22.6667 29.4248C22.7947 29.2542 22.8344 29.0387 22.7761 28.8348L20.6926 21.4769H29.0896C29.5916 21.4769 30 21.0681 30 20.5656V18.4237C30 17.9211 29.5916 17.5123 29.0896 17.5123ZM12.2441 1.24499C12.2441 1.22876 12.2573 1.21559 12.2735 1.21559H17.5544C17.5705 1.21559 17.5838 1.22876 17.5838 1.24499V2.91172C17.5838 2.92794 17.5705 2.94111 17.5544 2.94111H12.2735C12.2573 2.94111 12.2441 2.92794 12.2441 2.91172V1.24499ZM22.5214 16.5469C22.5214 16.5307 22.5347 16.5175 22.5508 16.5175H25.682C25.6981 16.5175 25.7113 16.5307 25.7113 16.5469V17.5123H22.5214V16.5469ZM17.6448 21.4769L18.2272 23.5335H11.7728L12.3552 21.4769H17.6448ZM9.36139 28.8149L8.14566 28.8136L10.2232 21.4769H11.4394L9.36139 28.8149ZM11.2602 25.3433L11.523 24.4155H18.477L18.7398 25.3433H11.2602ZM21.8543 28.8136L20.6386 28.8149L18.5606 21.4769H19.7768L21.8543 28.8136Z" fill="white"/>
</svg>
