<svg width="25" height="25" viewBox="0 0 25 25" fill="none" xmlns="http://www.w3.org/2000/svg">
<g clip-path="url(#clip0_3554_336)">
<path d="M14.0625 21.875H9.89583C9.60833 21.875 9.375 21.6417 9.375 21.3542C9.375 21.0667 9.60833 20.8333 9.89583 20.8333H14.0625C14.924 20.8333 15.625 20.1323 15.625 19.2708V14.0625C15.625 13.775 15.8583 13.5417 16.1458 13.5417C16.4333 13.5417 16.6667 13.775 16.6667 14.0625V19.2708C16.6667 20.7063 15.499 21.875 14.0625 21.875Z" fill="#0D2839"/>
<path d="M24.4795 11.4584H14.0628C13.7753 11.4584 13.542 11.225 13.542 10.9375C13.542 10.65 13.7753 10.4167 14.0628 10.4167H24.4795C24.767 10.4167 25.0003 10.65 25.0003 10.9375C25.0003 11.225 24.767 11.4584 24.4795 11.4584Z" fill="#0D2839"/>
<path d="M8.33333 25C8.10417 25 7.88021 24.9615 7.66875 24.8865L1.42917 22.8062C0.575 22.5219 0 21.7281 0 20.8333V2.08333C0 0.934375 0.934375 0 2.08333 0C2.31458 0 2.53958 0.0385417 2.74896 0.114583L8.9875 2.19375C9.84167 2.47708 10.4167 3.27083 10.4167 4.16667V22.9167C10.4167 24.0656 9.48229 25 8.33333 25ZM2.08333 1.04167C1.50833 1.04167 1.04167 1.50937 1.04167 2.08333V20.8333C1.04167 21.2792 1.32917 21.675 1.75833 21.8187L8.00833 23.9021C8.69167 24.1448 9.375 23.5979 9.375 22.9167V4.16667C9.375 3.71979 9.0875 3.32396 8.65833 3.18229L2.40833 1.09896C2.30104 1.06042 2.19167 1.04167 2.08333 1.04167Z" fill="#0D2839"/>
<path d="M16.1458 8.33333C15.8583 8.33333 15.625 8.1 15.625 7.8125V2.60417C15.625 1.74271 14.924 1.04167 14.0625 1.04167H2.08333C1.79583 1.04167 1.5625 0.808333 1.5625 0.520833C1.5625 0.233333 1.79583 0 2.08333 0H14.0625C15.499 0 16.6667 1.16875 16.6667 2.60417V7.8125C16.6667 8.1 16.4333 8.33333 16.1458 8.33333Z" fill="#0D2839"/>
<path d="M20.3121 15.625C20.1788 15.625 20.0454 15.574 19.9434 15.4729C19.7402 15.2698 19.7402 14.9396 19.9434 14.7365L23.7413 10.9385L19.9434 7.14062C19.7402 6.93749 19.7402 6.60728 19.9434 6.40416C20.1465 6.20103 20.4767 6.20103 20.6798 6.40416L24.8465 10.5708C25.0496 10.774 25.0496 11.1042 24.8465 11.3073L20.6798 15.474C20.5788 15.574 20.4454 15.625 20.3121 15.625Z" fill="#0D2839"/>
</g>
<defs>
<clipPath id="clip0_3554_336">
<rect width="25" height="25" fill="white"/>
</clipPath>
</defs>
</svg>
