<svg width="24" height="29" viewBox="0 0 24 29" fill="none" xmlns="http://www.w3.org/2000/svg">
<g clip-path="url(#clip0_3490_438)">
<path d="M12.0004 21.5092C11.9117 21.5091 11.8253 21.481 11.7538 21.4292L8.27225 18.9076C8.16502 18.8296 8.10156 18.7054 8.10156 18.5736C8.10156 18.5559 8.10273 18.5381 8.10498 18.5206L8.33285 16.7509C8.35946 16.5441 8.53714 16.389 8.7476 16.389C8.97848 16.389 9.16572 16.5746 9.16572 16.8034C9.16572 16.8209 9.16455 16.8384 9.16233 16.8558L8.96542 18.383L12.0012 20.5819L15.0395 18.383L14.8413 16.85C14.8391 16.8326 14.8379 16.815 14.8379 16.7974C14.8379 16.5686 15.0252 16.383 15.2561 16.383C15.4664 16.383 15.6442 16.538 15.6708 16.7448L15.9004 18.5194C15.9026 18.5369 15.9038 18.5547 15.9038 18.5724C15.9038 18.7042 15.8403 18.8284 15.7331 18.9064L12.2499 21.4284C12.1782 21.4808 12.0911 21.5092 12.0019 21.5092C12.0014 21.5092 12.0009 21.5092 12.0004 21.5092L12.0004 21.5092L12.0004 21.5092Z" fill="white"/>
<path d="M6.20047 13.6373C6.19127 13.6373 6.18209 13.6373 6.17329 13.6373C5.81351 13.6019 5.45903 13.5191 5.12084 13.3934C4.38314 13.1761 3.81397 12.5911 3.62129 11.8528C3.58446 11.6909 3.56543 11.5246 3.56543 11.3582C3.56543 10.4281 4.14647 9.59474 5.02408 9.26559C5.10684 9.23671 5.19201 9.2127 5.27814 9.19486C5.31028 9.18714 5.34329 9.18326 5.37636 9.18326C5.60722 9.18326 5.5175 9.43865 5.5175 9.66743C5.5175 9.86445 5.65436 9.96397 5.45962 10.0036C5.40625 10.0145 5.35281 10.0297 5.30112 10.0472C4.75948 10.2682 4.40547 10.7917 4.40547 11.3724C4.40547 11.475 4.41679 11.5775 4.43866 11.6776C4.56508 12.1207 4.91266 12.4686 5.3585 12.5985C5.37356 12.6027 5.38902 12.6076 5.40325 12.613C5.66883 12.7129 5.9469 12.7797 6.22913 12.811C6.45466 12.8181 6.63407 13.0016 6.63407 13.2254C6.63407 13.4543 6.44675 13.64 6.21578 13.64C6.21144 13.64 6.20689 13.6399 6.2026 13.6398L6.20051 13.6373L6.20047 13.6373Z" fill="white"/>
<path d="M17.7986 13.6373C17.7944 13.6374 17.7898 13.6375 17.7855 13.6375C17.5545 13.6375 17.3672 13.4518 17.3672 13.2229C17.3672 12.9991 17.5466 12.8156 17.7723 12.8086C18.0546 12.7776 18.3326 12.7105 18.5981 12.6106C18.6123 12.6052 18.6282 12.6003 18.6433 12.5961C19.0882 12.4655 19.4348 12.1176 19.5605 11.6751C19.5829 11.574 19.5942 11.471 19.5942 11.3677C19.5942 10.7953 19.2495 10.2777 18.7184 10.0529C18.6916 10.0438 18.6595 10.0326 18.6089 10.0193C18.4259 9.97103 18.2984 9.80665 18.2984 9.6189C18.2984 9.39004 18.4857 9.20449 18.7166 9.20449C18.7529 9.20449 18.7892 9.20919 18.8243 9.21845C18.9313 9.24703 18.9936 9.27067 18.9936 9.27067C20.1112 9.6216 20.5882 10.8866 20.3771 11.8519C20.1847 12.5904 19.6152 13.1757 18.8772 13.3928C18.5395 13.5188 18.1844 13.6015 17.8252 13.6368C17.8173 13.6372 17.8081 13.6372 17.7985 13.6372L17.7987 13.6373H17.7986Z" fill="white"/>
<path d="M23.5823 28.9999H0.418074C0.187239 28.9999 0 28.8144 0 28.5856V25.6935C0 22.2587 2.41241 19.1885 5.61255 18.5479L6.95714 18.3312C6.97918 18.3277 7.00165 18.3259 7.02402 18.3259C7.25497 18.3259 7.44227 18.5115 7.44227 18.7404C7.44227 18.9437 7.29343 19.1171 7.09092 19.1496L5.76179 19.3634C2.96054 19.9227 0.836167 22.6453 0.836167 25.6936V28.1713H23.1626V25.6936C23.1626 22.6577 21.0236 19.9418 18.1872 19.3754L16.9015 19.1483C16.7021 19.1132 16.5568 18.9412 16.5568 18.7404C16.5568 18.5116 16.7441 18.3261 16.9749 18.3261C16.9995 18.3261 17.0241 18.3283 17.0483 18.3325L18.3444 18.5616C21.5725 19.2055 24 22.2711 24 25.6935V28.5856C24 28.5856 24 28.5856 24 28.5856C24 28.8142 23.8131 28.9997 23.5823 28.9999V29L23.5823 28.9999Z" fill="white"/>
<path d="M11.9949 18.5467C11.9924 18.5467 11.9889 18.5467 11.9861 18.5467C11.1047 18.5467 10.2405 18.3002 9.49382 17.8368C7.73782 16.7596 5.64062 14.8661 5.64062 11.9889V10.6768C5.64074 10.4481 5.82798 10.2626 6.05884 10.2626C6.28969 10.2626 6.47693 10.4481 6.47693 10.6769V11.9883C6.47693 14.4842 8.35836 16.1635 9.93712 17.1334C10.555 17.5144 11.2692 17.7175 11.9971 17.7175C12.725 17.7175 13.4392 17.5144 14.0568 17.1332C15.6385 16.1612 17.5228 14.4815 17.5228 11.9872V10.6767C17.5231 10.4481 17.7103 10.2626 17.9412 10.2626C18.172 10.2626 18.3593 10.4482 18.3593 10.6769V11.9883C18.3593 14.8625 16.2604 16.7556 14.4994 17.8378C13.7498 18.301 12.8835 18.5468 11.9999 18.5468C11.9987 18.5468 11.9964 18.5468 11.9952 18.5468L11.995 18.5468L11.9949 18.5467Z" fill="white"/>
<path d="M14.0254 22.7729C14.0254 22.7729 14.0252 22.7729 14.0252 22.7729C13.9466 22.7729 13.8694 22.7507 13.803 22.7091L11.7782 21.4437C11.6568 21.3679 11.583 21.2355 11.583 21.0932C11.583 20.9609 11.6469 20.8364 11.7548 20.7584L15.2375 18.2434C15.3078 18.1918 15.393 18.1638 15.4805 18.1638C15.4867 18.1638 15.4931 18.164 15.4992 18.1643C16.0136 18.1881 16.533 18.2464 17.041 18.3305C17.2447 18.361 17.3954 18.535 17.3954 18.7395C17.3954 18.8342 17.3626 18.9263 17.3025 18.9999L14.3507 22.6196C14.2714 22.7165 14.152 22.7729 14.026 22.7729C14.0258 22.7729 14.0255 22.7729 14.0254 22.7729L14.0254 22.7729L14.0254 22.7729ZM13.0697 20.9142L14.2596 21.66L16.5123 18.8973C16.3225 18.8753 16.131 18.8558 15.9357 18.8467L13.0697 20.9142V20.9142Z" fill="white"/>
<path d="M9.97457 22.7729C9.84825 22.7729 9.72866 22.7161 9.64934 22.6188L6.6984 19.0025C6.63828 18.9288 6.60547 18.8368 6.60547 18.742C6.60547 18.5375 6.75613 18.3635 6.96011 18.3325C7.46937 18.2489 7.98609 18.1906 8.50114 18.1663C8.5071 18.1665 8.51313 18.1664 8.5191 18.1664C8.60683 18.1664 8.69244 18.1943 8.76295 18.2459L12.2461 20.7609C12.3539 20.8389 12.4178 20.9634 12.4178 21.0957C12.4178 21.238 12.3441 21.3704 12.2227 21.4462L10.1974 22.7099C10.131 22.7511 10.0542 22.7729 9.97585 22.7729C9.97544 22.7729 9.97498 22.7729 9.97457 22.7729V22.7729ZM8.03585 18.9859L10.2886 21.7487L11.4785 21.0029L8.61407 18.9362C8.41716 18.947 8.22564 18.9648 8.03583 18.9867L8.03585 18.9859V18.9859Z" fill="white"/>
<path d="M4.87608 28.9999C4.64525 28.9999 4.45801 28.8143 4.45801 28.5856V24.6742C4.45801 24.4455 4.64525 24.2599 4.8761 24.2599C5.10696 24.2599 5.2942 24.4455 5.2942 24.6743V28.5856C5.2942 28.8143 5.10696 28.9999 4.8761 28.9999L4.87608 28.9999Z" fill="white"/>
<path d="M19.1241 28.9999C18.8933 28.9999 18.7061 28.8143 18.7061 28.5856V24.6742C18.7061 24.4455 18.8933 24.2599 19.1241 24.2599C19.355 24.2599 19.5422 24.4455 19.5422 24.6743V28.5856C19.5422 28.8143 19.355 28.9999 19.1241 28.9999V28.9999Z" fill="white"/>
<path d="M17.8551 12.8036C18.0343 12.8034 18.1934 12.6898 18.2506 12.5215C18.9825 10.2456 19.3617 7.85934 19.3675 5.46734C19.3372 4.50166 18.961 3.57736 18.3081 2.8611C17.6755 2.19118 16.9451 1.61022 16.1473 1.14526C15.4088 0.665496 14.5924 0.312051 13.7353 0.104877C13.335 0.0357793 12.9268 8.39233e-05 12.5195 8.39233e-05C11.9664 8.39233e-05 11.4173 0.0844316 10.8756 0.19385C8.87366 0.598241 6.58232 0.884921 5.58995 2.82933C5.58724 2.83466 5.58366 2.84011 5.58076 2.84548C5.22133 3.48288 4.38716 3.60324 4.24617 4.823C4.18103 5.38652 4.42777 6.88772 4.51437 7.43082C4.53656 7.57005 4.53945 7.71389 4.56932 7.85214C4.59058 7.9459 4.60464 8.0415 4.61099 8.13755C4.68483 9.4348 4.99779 10.7094 5.53127 11.895C5.63161 12.1402 5.71815 12.3507 5.75454 12.4866C5.8002 12.6673 5.96421 12.7938 6.15217 12.7938C6.15883 12.7938 6.1656 12.7936 6.17222 12.7933C6.36581 12.7873 6.52991 12.6499 6.56854 12.4618C6.72215 11.2765 6.81524 10.0691 6.83953 8.87776V8.85955C7.03925 6.84332 8.75003 5.30462 10.7939 5.30462C10.8012 5.30462 10.809 5.30462 10.8163 5.30462C10.9488 5.3133 11.088 5.30462 11.2235 5.30836L11.2784 5.3084C11.4424 5.30046 11.6115 5.29666 11.7769 5.29666C12.5768 5.29666 13.3767 5.38812 14.1548 5.56725C14.527 5.63893 16.3118 6.06445 16.7889 7.81086C16.9252 8.22147 17.2592 10.8628 17.4398 12.436C17.4615 12.6287 17.6159 12.7807 17.8108 12.8012C17.8254 12.8028 17.8403 12.8037 17.8551 12.8037L17.8551 12.8037L17.8551 12.8036ZM10.7717 4.4731C10.7661 4.47306 10.7609 4.47306 10.7556 4.47306C8.27543 4.47306 6.19962 6.34206 5.96334 8.78824C5.96334 8.8048 5.95876 8.86322 5.95917 8.87982C5.96671 9.0729 5.92992 9.81786 5.87556 10.5749C5.59729 9.78071 5.43559 8.94808 5.40072 8.10811C5.39366 7.97044 5.37496 7.83209 5.34636 7.69701C5.32375 7.59812 5.30961 7.49723 5.30468 7.3961C5.30468 7.39583 5.30468 7.39538 5.30468 7.39496C5.30468 7.37652 5.30368 7.35764 5.30051 7.33988C5.20638 6.81296 4.96803 5.40541 5.03595 4.8228C5.09638 4.3045 5.99737 3.75537 6.27654 3.2259C7.14088 1.5867 9.26638 1.37523 10.9835 1.00557C11.4738 0.900015 11.9725 0.826958 12.4748 0.826958C12.825 0.826958 13.1752 0.856518 13.52 0.914089C14.2817 1.10233 15.0078 1.41872 15.6634 1.84646C16.3897 2.26836 17.0534 2.79367 17.6313 3.40079C18.1517 3.96413 18.4553 4.69292 18.4869 5.45616C18.4699 7.05285 18.2932 8.66308 17.9707 10.2303C17.877 9.33918 17.7299 8.44532 17.5444 7.57046C17.0877 6.09398 15.8234 5.00208 14.2862 4.75486C13.4534 4.56368 12.5988 4.46581 11.7429 4.46581C11.5742 4.46581 11.4014 4.46989 11.234 4.47667L11.184 4.47724C11.0518 4.47516 10.8997 4.47682 10.7717 4.47349V4.47308L10.7717 4.4731Z" fill="white"/>
<path d="M11.0128 28.652C10.782 28.6519 10.5947 28.3723 10.5947 28.0276V22.1335C10.5947 21.7888 10.782 21.5092 11.0128 21.5092C11.2437 21.5092 11.4309 21.7888 11.4309 22.1336V28.0276C11.4309 28.3723 11.2437 28.6519 11.0128 28.6519L11.0128 28.652Z" fill="white"/>
<path d="M12.9874 28.652C12.7566 28.6519 12.5693 28.3723 12.5693 28.0276V22.1335C12.5693 21.7888 12.7566 21.5092 12.9874 21.5092C13.2183 21.5092 13.4055 21.7888 13.4055 22.1336V28.0276C13.4055 28.3723 13.2183 28.6519 12.9874 28.6519L12.9874 28.652Z" fill="white"/>
</g>
<defs>
<clipPath id="clip0_3490_438">
<rect width="24" height="29" fill="white"/>
</clipPath>
</defs>
</svg>
